<svg xmlns="http://www.w3.org/2000/svg" width="1200" height="1600" viewBox="0 0 1200 1600">
  <defs>
    <linearGradient id="g" x1="0" y1="0" x2="1" y2="1">
      <stop offset="0" stop-color="#052e2b"/>
      <stop offset="0.55" stop-color="#064e3b"/>
      <stop offset="1" stop-color="#0f766e"/>
    </linearGradient>
    <radialGradient id="h" cx="35%" cy="25%" r="70%">
      <stop offset="0" stop-color="#34d399" stop-opacity="0.35"/>
      <stop offset="0.55" stop-color="#10b981" stop-opacity="0.12"/>
      <stop offset="1" stop-color="#0b2f2b" stop-opacity="0"/>
    </radialGradient>
    <filter id="blur" x="-20%" y="-20%" width="140%" height="140%">
      <feGaussianBlur stdDeviation="26"/>
    </filter>
    <filter id="grain" x="-20%" y="-20%" width="140%" height="140%">
      <feTurbulence type="fractalNoise" baseFrequency="0.9" numOctaves="2" stitchTiles="stitch"/>
      <feColorMatrix type="matrix" values="0 0 0 0 0.95  0 0 0 0 0.98  0 0 0 0 0.97  0 0 0 0.06 0"/>
    </filter>
    <linearGradient id="leaf" x1="0" y1="0" x2="1" y2="1">
      <stop offset="0" stop-color="#22c55e" stop-opacity="0.55"/>
      <stop offset="1" stop-color="#059669" stop-opacity="0.25"/>
    </linearGradient>
  </defs>

  <rect width="1200" height="1600" fill="url(#g)"/>
  <rect width="1200" height="1600" fill="url(#h)"/>

  <g filter="url(#blur)" opacity="0.85">
    <circle cx="260" cy="220" r="260" fill="#34d399" fill-opacity="0.22"/>
    <circle cx="1020" cy="380" r="320" fill="#10b981" fill-opacity="0.15"/>
    <circle cx="840" cy="1280" r="380" fill="#2dd4bf" fill-opacity="0.12"/>
    <circle cx="260" cy="1240" r="340" fill="#22c55e" fill-opacity="0.10"/>
  </g>

  <g opacity="0.35">
    <path d="M186 544c98-160 300-206 430-74-108 36-184 118-232 236-66 166-142 250-278 272 12-140 34-272 80-434z" fill="url(#leaf)"/>
    <path d="M742 462c160-90 330-18 372 148-122-22-228 12-316 102-122 124-232 182-372 162 64-128 138-242 316-412z" fill="url(#leaf)"/>
    <path d="M530 976c144-138 330-130 406 24-124 2-232 60-320 174-102 132-208 204-354 208 26-142 92-270 268-406z" fill="url(#leaf)"/>
    <path d="M160 980c110-96 250-80 308 14-92 6-172 50-238 132-82 104-164 156-278 154 26-104 72-194 208-300z" fill="url(#leaf)"/>
  </g>

  <rect width="1200" height="1600" filter="url(#grain)" opacity="0.55"/>
</svg>
